<?xml version="1.0" encoding="utf-8"?>
<!-- Generator: Adobe Illustrator 25.4.1, SVG Export Plug-In . SVG Version: 6.00 Build 0)  -->
<svg version="1.1" xmlns="http://www.w3.org/2000/svg" xmlns:xlink="http://www.w3.org/1999/xlink" x="0px" y="0px"
	 viewBox="0 0 381.4 381.4" style="enable-background:new 0 0 381.4 381.4;" xml:space="preserve">
<style type="text/css">
	.st0{fill:none;}
</style>
<g id="Capa_1">
	<g>
		<polygon class="st0" points="210.5,33.7 210.5,113.9 290.7,113.9 		"/>
		<path d="M283.3,195.4c10.2,0,20.1,1.8,29.2,5V99.3l-87.4-87.4H108.5c-16.1,0-29.1,13-29.1,29.1v233.2c0,16,13,29.1,29.1,29.1h89.2
			c-1.5-6.4-2.3-13.1-2.3-20C195.4,234.8,234.8,195.4,283.3,195.4z M210.5,33.7l80.1,80.1h-80.1V33.7z"/>
		<path d="M210.5,332.5H50.2V70.2H21.1v262.3c0,16.1,13,29.1,29.1,29.1h193.2C230.1,354.8,218.8,344.8,210.5,332.5z"/>
	</g>
</g>
<g id="Layer_2">
	<path d="M345.1,267.9v30.9h-46.3v46.3h-30.9v-46.3h-46.3v-30.9h46.3v-46.3h30.9v46.3H345.1z"/>
</g>
</svg>
