<?xml version="1.0" encoding="iso-8859-1"?>
<!-- Generator: Adobe Illustrator 16.0.0, SVG Export Plug-In . SVG Version: 6.00 Build 0)  -->
<!DOCTYPE svg PUBLIC "-//W3C//DTD SVG 1.1//EN" "http://www.w3.org/Graphics/SVG/1.1/DTD/svg11.dtd">
<svg version="1.1" id="Capa_1" xmlns="http://www.w3.org/2000/svg" xmlns:xlink="http://www.w3.org/1999/xlink" x="0px" y="0px"
	 width="428.884px" height="428.884px" viewBox="0 0 428.884 428.884" style="enable-background:new 0 0 428.884 428.884;"
	 xml:space="preserve">
<g>
	<path d="M40.347,274.298l70.832,27.992V5.675c0-3.136,2.551-5.669,5.675-5.675h56.772c3.136,0.006,5.672,2.539,5.672,5.669V302.29
		l70.856-27.992c2.375-0.919,5.079-0.164,6.613,1.863c1.547,2.046,1.534,4.854-0.037,6.875L149.75,422.191
		c-1.078,1.395-2.743,2.21-4.509,2.223c-1.751,0-3.422-0.828-4.494-2.223L33.761,283.036c-0.786-1.023-1.178-2.247-1.172-3.459
		c-0.006-1.182,0.375-2.398,1.136-3.428C35.265,274.122,37.972,273.366,40.347,274.298z M396.295,428.884H371.92l-13.762-33.089
		h-41.425l-13.384,33.089h-23.821l46.12-110.786h24.319L396.295,428.884z M352.373,379.573l-11.039-26.463
		c-1.56-3.751-2.85-7.319-4.001-10.766c-1.272,3.812-2.515,7.258-3.794,10.546l-11.058,26.677h29.892V379.573z M381.145,183h-93.158
		v17.017h62.633l-68.752,82.088v11.697h100.228v-17.014h-69.319l68.369-81.752V183L381.145,183z"/>
</g>
<g>
</g>
<g>
</g>
<g>
</g>
<g>
</g>
<g>
</g>
<g>
</g>
<g>
</g>
<g>
</g>
<g>
</g>
<g>
</g>
<g>
</g>
<g>
</g>
<g>
</g>
<g>
</g>
<g>
</g>
</svg>
