<?xml version="1.0" encoding="iso-8859-1"?>
<!-- Generator: Adobe Illustrator 16.0.0, SVG Export Plug-In . SVG Version: 6.00 Build 0)  -->
<!DOCTYPE svg PUBLIC "-//W3C//DTD SVG 1.1//EN" "http://www.w3.org/Graphics/SVG/1.1/DTD/svg11.dtd">
<svg version="1.1" id="Capa_1" xmlns="http://www.w3.org/2000/svg" xmlns:xlink="http://www.w3.org/1999/xlink" x="0px" y="0px"
	 width="381.399px" height="381.399px" viewBox="0 0 381.399 381.399" style="enable-background:new 0 0 381.399 381.399;"
	 xml:space="preserve">
<g>
	<path d="M251.155,134.901l-63.645-25.147v266.551c0,2.816-2.288,5.094-5.105,5.094h-51.016c-2.818,0-5.101-2.277-5.101-5.094
		V109.754l-63.655,25.147c-2.135,0.834-4.564,0.15-5.948-1.669c-1.391-1.839-1.38-4.36,0.026-6.187L152.849,1.989
		C153.812,0.736,155.312,0,156.904,0c1.571,0,3.076,0.741,4.039,1.989l96.142,125.057c0.711,0.92,1.057,2.017,1.057,3.108
		c0,1.064-0.338,2.159-1.028,3.079C255.723,135.052,253.284,135.735,251.155,134.901z M242.229,248.909h-21.404l41.443-99.557
		h21.852l41.631,99.557h-21.904l-12.368-29.729h-37.231L242.229,248.909z M259.416,204.608h26.864l-9.921-23.783
		c-1.406-3.374-2.562-6.578-3.597-9.677c-1.144,3.431-2.258,6.528-3.407,9.477L259.416,204.608z M317.458,287.718v-10.818h-83.71
		v15.296h56.286l-61.786,73.761v10.518h90.068v-15.29h-62.304L317.458,287.718z"/>
</g>
<g>
</g>
<g>
</g>
<g>
</g>
<g>
</g>
<g>
</g>
<g>
</g>
<g>
</g>
<g>
</g>
<g>
</g>
<g>
</g>
<g>
</g>
<g>
</g>
<g>
</g>
<g>
</g>
<g>
</g>
</svg>
