<?xml version="1.0" encoding="utf-8"?>
<!-- Generator: Adobe Illustrator 25.4.1, SVG Export Plug-In . SVG Version: 6.00 Build 0)  -->
<svg version="1.1" id="Layer_2" xmlns="http://www.w3.org/2000/svg" xmlns:xlink="http://www.w3.org/1999/xlink" x="0px" y="0px"
	 viewBox="0 0 381.4 381.4" style="enable-background:new 0 0 381.4 381.4;" xml:space="preserve">
<style type="text/css">
	.st0{fill:#FFFFFF;}
</style>
<path class="st0" d="M142.5,268.7v31.5h94.6v-31.5l47.3,47.3l-47.3,47.3v-31.5h-94.6v31.5L95.2,316L142.5,268.7"/>
<path class="st0" d="M309,108h45.1L309,62.9V108 M251.6,50.6h65.6l49.2,49.2v98.4c0,9.1-7.3,16.4-16.4,16.4h-98.4
	c-9.1,0-16.4-7.4-16.4-16.4V67C235.2,57.9,242.6,50.6,251.6,50.6 M218.8,83.4V231h131.2v16.4H218.8c-9.1,0-16.4-7.3-16.4-16.4V83.4
	H218.8z"/>
<path class="st0" d="M128.1,50H62.3c-9,0-16.4,7.4-16.4,16.4V198c0,9,7.4,16.4,16.4,16.4H161c9,0,16.4-7.4,16.4-16.4V99.4L128.1,50
	 M161,198H62.3V66.5h57.6v41.1H161V198 M29.4,82.9v148H161v16.4H29.4c-9,0-16.4-7.4-16.4-16.4v-148H29.4z"/>
</svg>
